<svg width="108" height="64" viewBox="0 0 62 36" style="width:108;height:64" fill='none' xmlns="http://www.w3.org/2000/svg">
  <path fillRule='evenodd' clipRule='evenodd' d="M2.673 17.71c.352.41.725.804 1.118 1.18l1.181 1.14c.232.204.412.455.53.734.117.28.167.58.147.88-.032.284-.13.556-.29.797-.158.24-.372.444-.625.593-.278.19-.622.268-.96.22h-1.18a1.144 1.144 0 01-.45-.095 1.098 1.098 0 01-.37-.263c-.272-.285-.286-.378-.286-.868 0-.236-.025-8.794.006-9.056a.968.968 0 01.171-.381c.084-.114.193-.21.319-.28.279-.174.61-.254.941-.229a3.365 3.365 0 012.041.31c.259.158.47.378.614.638.144.26.214.552.205.846-.034.59-.3 1.146-.743 1.556-.508.589-2.236 1.916-2.369 2.277zm4.22-5.629c.497-.025.995-.02 1.491.014.387.054.745.228 1.02.494a1.7 1.7 0 01.505.982c.027.202.008.408-.057.601a1.37 1.37 0 01-.32.52 17.245 17.245 0 01-1.906 1.836c-.219.173-1.142 1.012-1.125 1.153l3.537 3.47c.406.402 2.033 1.889 2.114 2.1H6.999c.066-.12.141-.236.227-.344.272-.37.418-.812.416-1.265a2.722 2.722 0 00-.293-1.251 2.85 2.85 0 00-.841-.998l-1.692-1.715c.157-.208.334-.402.53-.578.37-.361.9-.751 1.196-1.06.193-.188.369-.392.524-.61.375-.51.542-1.133.47-1.752-.101-1.107-.569-1.265-.643-1.593v-.004zm3.883 0c1.507-.024 2.457-.135 2.432 1.878l-.04 1.946c-.02 2.03.009 4.116 0 6.16l-4.532-4.403c.154-.218.333-.418.536-.596l.62-.54c.12-.111.194-.158.306-.266.318-.267.61-.56.876-.875a2.2 2.2 0 00.47-.82c.094-.302.12-.62.077-.932 0-.966-.61-1.21-.743-1.556l-.002.004zM2.46 10.716c-.463.019-.911.16-1.294.408a2.416 2.416 0 00-.877.998 2.951 2.951 0 00-.275 1.473v5.248c0 1.15-.033 2.346 0 3.492.03.441.183.868.442 1.235.259.367.615.661 1.032.853a3.051 3.051 0 001.548.252h9.126a2.61 2.61 0 001.282-.417c.38-.247.682-.589.875-.988.23-.463.322-.977.27-1.487v-8.744a2.091 2.091 0 00-.476-1.291 2.748 2.748 0 00-1.01-.79 3.102 3.102 0 00-1.549-.242H4.272c-.584 0-1.236-.03-1.808 0H2.46zM30.628 21.182l1.789.006-.014-4.662c.085.071 1.204 2.233 1.25 2.325l1.244 2.335h2.398l.008-6.973c-.195-.016-1.627-.024-1.755.008l-.036 4.573c-.06-.06-1.312-2.51-1.482-2.857l-.899-1.728h-2.497l-.006 6.974v-.001zM48.995 19.863V18.21a4.976 4.976 0 011.352.087c.385.103.697.292.675.74 0 .18-.068.356-.19.493a.808.808 0 01-.479.258 5.477 5.477 0 01-1.355.08l-.003-.004zm0-2.894l-.006-1.433a5.937 5.937 0 011.233.044.688.688 0 01.445.22.632.632 0 01.165.453c-.014.738-1.312.779-1.837.717v-.001zm-1.95 4.214c.266.027 2.296 0 2.744.005 1.494 0 3.396-.333 3.16-2.197a1.498 1.498 0 00-.247-.698c-.14-.21-.33-.384-.556-.508a2.19 2.19 0 00-.542-.141c-.01-.144.065-.049.397-.241.245-.16.446-.377.582-.63a1.651 1.651 0 00-.034-1.63 1.747 1.747 0 00-.608-.606 4.278 4.278 0 00-2.285-.323c-.346 0-2.458-.021-2.607.01v6.958h-.004zM18.708 18.251a7 7 0 011.326.035.724.724 0 01.478.226.664.664 0 01.18.48c0 .412-.065.583-.509.735a4.18 4.18 0 01-1.47.13V18.251h-.005zm.006-2.714a5.53 5.53 0 011.22.046c.396.087.578.23.575.665 0 .401-.27.543-.626.64a3.944 3.944 0 01-1.171.073l.006-1.425-.004.001zM16.76 21.19c1.627-.059 5.043.375 5.734-1.112.145-.381.193-.79.14-1.194a1.398 1.398 0 00-.428-.823 1.51 1.51 0 00-.866-.4c-.13-.014-.09.01-.122-.06.04-.062-.014-.024.108-.054a1.072 1.072 0 00.345-.138c.21-.116.39-.277.523-.471.134-.194.219-.414.248-.645.008-.746.014-1.294-.794-1.738a4.244 4.244 0 00-2.264-.342c-.87 0-1.763.02-2.628 0v6.981l.004-.004zM55.328 15.533c.77-.011 2.154-.073 1.865 1.017-.158.6-1.172.567-1.865.554v-1.571zm-1.947 5.652h1.944v-2.75a1.56 1.56 0 011.069.183c.403.476.682 1.038.813 1.638.057.15.107.299.155.454.039.161.089.32.15.474h1.973a23.538 23.538 0 00-1.016-2.797c-.227-.55-.465-.453-.615-.692a1.68 1.68 0 00.86-.457c.232-.232.384-.526.438-.842.094-.947-.119-1.487-.768-1.832a4.7 4.7 0 00-2.316-.358c-.887 0-1.808-.021-2.69 0v6.974l.003.005zM37.96 21.176l1.948.01V18.04c.252.117 1.95 2.822 2.272 3.096.094.082.28.054.449.054.326 0 1.805.017 1.998-.005a13.361 13.361 0 00-1.298-1.77c-.463-.583-.944-1.128-1.392-1.727-.18-.244-.164-.22.032-.464l1.774-2.136c.13-.152.633-.74.698-.868l-2.296.01a4.15 4.15 0 00-.63.738c-.26.34-.529.681-.796 1.015-.102.133-.74.973-.808.998v-2.767h-1.948v6.965l-.003-.003zM26.39 15.67c.075.052.568 1.783.636 2.006.084.227.152.459.203.695H25.44l.463-1.354c.082-.227.147-.442.233-.675.042-.12.079-.236.115-.34.037-.103.066-.285.145-.33l-.005-.001zm-3.942 5.512c.474.02 1.201.006 1.707.006.234 0 .23-.06.326-.237.202-.401.362-.82.479-1.251.274-.032 2.043-.01 2.46-.01.19 0 .24-.022.325.124.131.32.244.649.338.981.162.45.227.39.499.39l1.789-.006-2.765-6.968h-2.36c-.296.55-.544 1.123-.74 1.713-.457 1.07-.933 2.406-1.39 3.508a11.56 11.56 0 00-.668 1.752v-.002zM61.997 21.188V14.21h-1.941v6.976h1.94z" fill='#2156A6' />
</svg>