<svg width="108" height="64" viewBox="0 0 56 17" fill='none' xmlns="http://www.w3.org/2000/svg">
  <path d="M.107 11.4c0-.772-.014-1.421-.058-2h1.525l.072.995h.043c.22-.36.536-.656.917-.857.38-.202.81-.302 1.244-.29a2.09 2.09 0 011.18.324c.348.222.616.543.766.917h.03c.214-.342.51-.63.863-.84.414-.276.91-.417 1.413-.402 1.167 0 2.348.76 2.348 2.912v3.958H8.722v-3.71c0-1.117-.406-1.78-1.254-1.78-.278.01-.546.1-.768.261-.221.16-.386.383-.471.636-.052.184-.08.374-.087.564v4.03H4.42v-3.892c0-.936-.389-1.6-1.21-1.6-.291.013-.57.114-.798.287-.227.173-.392.41-.471.678-.071.176-.106.364-.102.552v3.974H.111L.107 11.4zM17.19 14.505c-.009.54.025 1.08.101 1.614h-1.6l-.111-.745h-.044c-.252.29-.57.521-.93.676-.358.156-.75.23-1.143.22a2.167 2.167 0 01-.837-.117 2.098 2.098 0 01-.718-.425 1.995 1.995 0 01-.483-.664 1.92 1.92 0 01-.168-.793c0-1.698 1.57-2.552 4.167-2.539v-.11c0-.441-.188-1.172-1.423-1.172a3.85 3.85 0 00-1.887.496l-.346-1.103a5.229 5.229 0 012.536-.594c.396-.043.798.001 1.174.13.376.127.716.335.996.608.28.272.49.602.616.965.126.362.164.747.112 1.126l-.012 2.427zm-1.728-1.668c-1.255-.028-2.45.233-2.45 1.254-.012.13.006.26.053.383.046.122.12.233.216.325a.969.969 0 00.74.258c.304.005.6-.082.849-.248.248-.166.436-.403.535-.677.039-.12.059-.246.058-.372l-.001-.923zM18.414 11.4c0-.772-.015-1.42-.056-2h1.555l.086 1.008h.044c.232-.365.561-.665.954-.869a2.62 2.62 0 011.282-.292c1.226 0 2.493.76 2.493 2.884v3.99H23v-3.795c0-.966-.376-1.698-1.34-1.698a1.53 1.53 0 00-.858.284 1.427 1.427 0 00-.526.71c-.054.178-.079.364-.072.55v3.947h-1.787l-.003-4.719zM32.453 6.702v7.527c0 .69.03 1.435.058 1.89h-1.585l-.072-1.061h-.03c-.229.383-.564.7-.968.913a2.618 2.618 0 01-1.322.3c-1.672 0-2.998-1.362-2.998-3.433-.015-2.25 1.455-3.589 3.14-3.589.381-.026.763.042 1.108.197.346.155.644.391.867.688h.03V6.703h1.772zM30.68 12.2c0-.148-.014-.296-.043-.441a1.476 1.476 0 00-.538-.861 1.595 1.595 0 00-.987-.338c-1.138 0-1.774.966-1.774 2.221 0 1.227.636 2.124 1.76 2.124.36-.002.707-.122.985-.34.278-.22.468-.523.54-.86.042-.163.061-.33.057-.497V12.2zM35.494 9.401h-1.788v6.718h1.788V9.401zM36.748 11.568c0-.91-.014-1.557-.057-2.166h1.542l.057 1.282h.059c.13-.385.387-.719.733-.95a1.994 1.994 0 011.184-.332c.138-.014.278-.014.416 0v1.485a2.548 2.548 0 00-.518-.056 1.606 1.606 0 00-1.047.353 1.48 1.48 0 00-.538.929 2.9 2.9 0 00-.057.525v3.476h-1.774v-4.546zM43.289 9.401h-1.786v6.718h1.786V9.401z" fill='#003D79' />
  <path d="M41.138 1.268c-1.075.596-4.581 2.514-4.581 2.514a2.27 2.27 0 01-1.43.155 2.195 2.195 0 01-1.22-.732l-.04-.055-.042-.07-.223-.348a6.711 6.711 0 00-.32-.442 4.643 4.643 0 00-.36-.39c-.844-.817-2.197-1.39-4.45-.365l-4.53 2.478-2.319 1.265 1.2 1.416c.35.393.828.663 1.357.767a2.538 2.538 0 001.565-.188l4.065-2.252c3.464-1.82 5.174-.081 5.93 1.078.026.036.048.075.071.11l.022.042.087.134c.172.267.413.488.7.639.288.151.612.228.94.224.364-.02.715-.132 1.017-.327l3.92-2.177h.008c3.506-1.841 5.244.011 5.987 1.168.058.098.122.194.19.285.165.241.39.439.656.575.265.136.562.206.863.203.343-.028.676-.129.973-.296l4.7-2.597a19.094 19.094 0 00-1.47-1.777c-.883-.966-1.829-.528-2.57-.173-.315.148-2.584 1.38-2.584 1.38-.43.196-.915.253-1.382.164a2.234 2.234 0 01-1.21-.66 1.151 1.151 0 01-.102-.135l-.087-.147a6.612 6.612 0 00-.5-.713 4.11 4.11 0 00-.357-.39 3.054 3.054 0 00-1.018-.68 3.167 3.167 0 00-1.218-.237 5.403 5.403 0 00-2.244.566" fill='#F8CB46' />
</svg>